{"title":"Stolichani v poveche - Season 2 - Episode 10","uid":8303268,"size":1280275984,"categoryP":"video","categoryS":"tv_shows","magnet":"?xt=urn:btih:f73514ad806305b3121237d0443cddfca0378cf3&amp;dn=Stolichani+v+poveche+-+Season+2+-+Episode+10&amp;tr=udp%3A%2F%2Ftracker.openbittorrent.com%3A80&amp;tr=udp%3A%2F%2Fopen.demonii.com%3A1337&amp;tr=udp%3A%2F%2Ftracker.coppersurfer.tk%3A6969&amp;tr=udp%3A%2F%2Fexodus.desync.com%3A6969","seeders":1,"leechers":0,"uploader":null,"files":1,"time":1364316143,"description":"Format                                   : AVI\nFormat/Info                              : Audio Video Interleave\nFormat profile                           : OpenDML\nFile size                                : 1.26 GiB\nDuration                                 : 45mn 52s\nOverall bit rate                         : 3 936 Kbps\nWriting application                      : Lavf52.39.1\n\nVideo\nID                                       : 0\nFormat                                   : MPEG-4 Visual\nFormat profile                           : Advanced Simple@L1\nFormat settings, BVOP                    : 2\nFormat settings, QPel                    : No\nFormat settings, GMC                     : No warppoints\nFormat settings, Matrix                  : Default (H.263)\nCodec ID                                 : DX50\nCodec ID/Hint                            : DivX 5\nDuration                                 : 45mn 51s\nBit rate                                 : 3 794 Kbps\nWidth                                    : 1 280 pixels\nHeight                                   : 720 pixels\nDisplay aspect ratio                     : 16:9\nFrame rate                               : 25.000 fps\nColor space                              : YUV\nChroma subsampling                       : 4:2:0\nBit depth                                : 8 bits\nScan type                                : Progressive\nCompression mode                         : Lossy\nBits/(Pixel*Frame)                       : 0.165\nStream size                              : 1.22 GiB (96%)\nWriting library                          : Lavc52.37.0\n\nAudio\nFormat                                   : MPEG Audio\nFormat version                           : Version 1\nFormat profile                           : Layer 3\nMode                                     : Joint stereo\nMode extension                           : MS Stereo\nCodec ID                                 : 55\nCodec ID/Hint                            : MP3\nDuration                                 : 45mn 52s\nBit rate mode                            : Constant\nBit rate                                 : 128 Kbps\nChannel(s)                               : 2 channels\nSampling rate                            : 44.1 KHz\nCompression mode                         : Lossy\nStream size                              : 42.0 MiB (3%)\nAlignment                                : Aligned on interleaves\nInterleave, duration                     : 26 ms (0.65 video frame)","torrent":{"xt":"urn:btih:f73514ad806305b3121237d0443cddfca0378cf3","amp;dn":"Stolichani+v+poveche+-+Season+2+-+Episode+10","amp;tr":["udp%3A%2F%2Ftracker.openbittorrent.com%3A80","udp%3A%2F%2Fopen.demonii.com%3A1337","udp%3A%2F%2Ftracker.coppersurfer.tk%3A6969","udp%3A%2F%2Fexodus.desync.com%3A6969"],"infoHash":"f73514ad806305b3121237d0443cddfca0378cf3","infoHashBuffer":{"type":"Buffer","data":[247,53,20,173,128,99,5,179,18,18,55,208,68,60,221,252,160,55,140,243]},"announce":[],"urlList":[]}}